<?xml version="1.0" encoding="UTF-8"?>
<svg version="1.1" xmlns="http://www.w3.org/2000/svg" width="760" height="195">
<path d="M0 0 C250.8 0 501.6 0 760 0 C760 64.35 760 128.7 760 195 C509.2 195 258.4 195 0 195 C0 130.65 0 66.3 0 0 Z " fill="#E3D6D1" transform="translate(0,0)"/>
<path d="M0 0 C2.375 1.5 2.375 1.5 4 3 C3.56179109 7.55737263 3.14958831 10.57653445 0 14 C1.28062485 15.7074998 2.61767557 17.37373596 4 19 C4.66 19 5.32 19 6 19 C6.33 18.34 6.66 17.68 7 17 C7.99 17.33 8.98 17.66 10 18 C9.608125 18.9075 9.21625 19.815 8.8125 20.75 C8.544375 21.8225 8.27625 22.895 8 24 C9.28350327 26.26757564 9.28350327 26.26757564 11 28 C11 28.66 11 29.32 11 30 C7 30 7 30 5.25 28.5 C4.8375 28.005 4.425 27.51 4 27 C3.505 27.495 3.01 27.99 2.5 28.5 C-1.01152719 30.60691631 -3.9998308 30.71314492 -8 30 C-10.5 28.5 -10.5 28.5 -12 26 C-12.93797331 19.53840606 -12.93797331 19.53840606 -10.87109375 16.1484375 C-9.5 14.5 -9.5 14.5 -7 12 C-7.66 11.01 -8.32 10.02 -9 9 C-9.32502803 5.87973093 -9.51151479 3.85252465 -7.875 1.125 C-5.10703881 -0.53577671 -3.16909182 -0.38805206 0 0 Z " fill="#5D3B18" transform="translate(547,39)"/>
<path d="M0 0 C1.28132813 0.00902344 2.56265625 0.01804687 3.8828125 0.02734375 C4.87023437 0.03894531 5.85765625 0.05054687 6.875 0.0625 C6.875 1.3825 6.875 2.7025 6.875 4.0625 C6.07835938 4.09988281 5.28171875 4.13726562 4.4609375 4.17578125 C-2.38958953 4.60081395 -7.71072427 4.98965184 -13 9.75 C-14.66416084 13.17077506 -14.64364293 16.37516191 -14.125 20.0625 C-12.83484783 23.66134553 -11.77923152 25.53204201 -8.8125 27.9375 C-5.72316433 29.23071028 -3.44161577 29.14484356 -0.125 29.0625 C0.2781543 28.21953369 0.68130859 27.37656738 1.09667969 26.50805664 C2.59879945 23.38453622 4.11332707 20.26770723 5.63671875 17.15454102 C6.29350023 15.80577015 6.94523443 14.45452937 7.59179688 13.10083008 C8.52199091 11.15555468 9.46996543 9.21987929 10.421875 7.28515625 C10.98745117 6.11734619 11.55302734 4.94953613 12.13574219 3.74633789 C13.875 1.0625 13.875 1.0625 16.09082031 0.17358398 C16.67959961 0.13692627 17.26837891 0.10026855 17.875 0.0625 C19.04676518 2.18482979 20.21254785 4.31007791 21.375 6.4375 C21.70886719 7.04078125 22.04273438 7.6440625 22.38671875 8.265625 C24.875 12.8359375 24.875 12.8359375 24.875 15.0625 C23.555 15.3925 22.235 15.7225 20.875 16.0625 C20.20345067 14.77336513 19.53791141 13.48109796 18.875 12.1875 C18.50375 11.46820313 18.1325 10.74890625 17.75 10.0078125 C16.875 8.0625 16.875 8.0625 16.875 6.0625 C16.215 6.0625 15.555 6.0625 14.875 6.0625 C14.68164062 6.67738281 14.48828125 7.29226562 14.2890625 7.92578125 C14.02867188 8.73402344 13.76828125 9.54226562 13.5 10.375 C13.24476562 11.17550781 12.98953125 11.97601563 12.7265625 12.80078125 C11.875 15.0625 11.875 15.0625 9.875 18.0625 C9.215 18.0625 8.555 18.0625 7.875 18.0625 C7.813125 19.0525 7.75125 20.0425 7.6875 21.0625 C7.02116679 25.93568321 4.35567599 30.58182401 0.875 34.0625 C-5.09897222 34.12538392 -9.51563053 33.02870163 -14.125 29.0625 C-17.75333663 25.24319828 -18.43500458 22.17970994 -18.625 17.0625 C-18.44130179 11.94428771 -17.69496587 8.92192256 -14.125 5.0625 C-9.11444696 0.64844137 -6.66367569 -0.06057887 0 0 Z " fill="#275E88" transform="translate(110.125,114.9375)"/>
<path d="M0 0 C13.51515152 0 13.51515152 0 18 4 C19 5 19 5 19.375 8.75 C19.29813071 12.03764019 18.96891854 13.05144517 17.1875 16 C12.38990727 19.01025426 8.60098359 18.33740865 3 18 C3 21.96 3 25.92 3 30 C2.01 30 1.02 30 0 30 C0 20.1 0 10.2 0 0 Z " fill="#643D0D" transform="translate(395,39)"/>
<path d="M0 0 C3.55580035 0.93384656 4.9096867 2.50261718 6.93359375 5.5078125 C8.29079465 10.09363418 8.33228537 13.46362015 6.62109375 17.9453125 C4.93359375 20.5078125 4.93359375 20.5078125 2.93359375 22.5078125 C-0.10405241 23.01213213 -3.02329764 22.95723957 -6.06640625 22.5078125 C-9.098563 20.30949886 -9.88295023 19.05818056 -11.06640625 15.5078125 C-11.67920297 10.91183707 -11.83110709 6.84187072 -9.06640625 2.9453125 C-5.73093954 0.2352458 -4.18376408 -0.36380557 0 0 Z " fill="#DBCEC5" transform="translate(486.06640625,124.4921875)"/>
<path d="M0 0 C2.15737915 2.15737915 2.706392 3.51775557 3.7265625 6.3515625 C4.0359375 7.20234375 4.3453125 8.053125 4.6640625 8.9296875 C4.98117188 9.81914063 5.29828125 10.70859375 5.625 11.625 C5.94984375 12.5221875 6.2746875 13.419375 6.609375 14.34375 C7.41126708 16.56074574 8.20790954 18.7794874 9 21 C10.66666488 18.50000268 11.66929534 16.53017327 12.7265625 13.76953125 C13.0359375 12.96708984 13.3453125 12.16464844 13.6640625 11.33789062 C13.98117188 10.50451172 14.29828125 9.67113281 14.625 8.8125 C14.94984375 7.96751953 15.2746875 7.12253906 15.609375 6.25195312 C16.40952866 4.16920023 17.20626974 2.08520743 18 0 C18.66 0 19.32 0 20 0 C20.85710792 3.95044687 21.71153808 7.90146232 22.56347656 11.85302734 C22.85375361 13.19758805 23.14476556 14.54199031 23.43652344 15.88623047 C23.85544309 17.81696561 24.27151281 19.74831842 24.6875 21.6796875 C24.93886719 22.84226074 25.19023438 24.00483398 25.44921875 25.20263672 C26 28 26 28 26 30 C25.01 30 24.02 30 23 30 C22.58427734 28.31970703 22.58427734 28.31970703 22.16015625 26.60546875 C21.79433333 25.13279698 21.42844447 23.66014158 21.0625 22.1875 C20.88009766 21.44951172 20.69769531 20.71152344 20.50976562 19.95117188 C19.7577385 16.92939016 18.98514427 13.95543282 18 11 C15.36 17.6 12.72 24.2 10 31 C7.90266155 28.90266155 7.31152245 27.59696645 6.2734375 24.8671875 C5.85457275 23.77833252 5.85457275 23.77833252 5.42724609 22.66748047 C5.08000488 21.74596191 4.73276367 20.82444336 4.375 19.875 C2.704375 15.481875 2.704375 15.481875 1 11 C-0.65 17.27 -2.3 23.54 -4 30 C-4.99 30 -5.98 30 -7 30 C-6.2162936 25.9359225 -5.42164737 21.87405893 -4.625 17.8125 C-4.40328125 16.66201172 -4.1815625 15.51152344 -3.953125 14.32617188 C-3.73398437 13.21435547 -3.51484375 12.10253906 -3.2890625 10.95703125 C-3.09006348 9.93585205 -2.89106445 8.91467285 -2.68603516 7.86254883 C-2.02311414 5.09644599 -1.12675133 2.60744499 0 0 Z " fill="#633F1E" transform="translate(66,39)"/>
<path d="M0 0 C10.33333333 0 10.33333333 0 14 3 C16.69657104 7.04485657 16.5422677 10.25307196 16 15 C14.18524607 19.26467175 13.2842238 19.8578881 9 22 C6.03 22 3.06 22 0 22 C0 14.74 0 7.48 0 0 Z " fill="#774714" transform="translate(365,125)"/>
<path d="M0 0 C2.48087198 2.48087198 3.27920046 4.77809745 4.6015625 8.03125 C5.09140625 9.23394531 5.58125 10.43664062 6.0859375 11.67578125 C6.46443848 12.61671631 6.46443848 12.61671631 6.85058594 13.57666016 C7.62307301 15.49521411 8.40464939 17.40987364 9.1875 19.32421875 C13 28.734437 13 28.734437 13 31 C11.68 30.67 10.36 30.34 9 30 C8.34 27.69 7.68 25.38 7 23 C0.565 23.495 0.565 23.495 -6 24 C-6.99 26.31 -7.98 28.62 -9 31 C-9.99 31 -10.98 31 -12 31 C-11.42118687 26.7520936 -10.41163896 23.14659723 -8.75 19.19921875 C-8.3065625 18.14025391 -7.863125 17.08128906 -7.40625 15.99023438 C-6.9421875 14.90033203 -6.478125 13.81042969 -6 12.6875 C-5.5359375 11.57826172 -5.071875 10.46902344 -4.59375 9.32617188 C-1.14834656 1.14834656 -1.14834656 1.14834656 0 0 Z " fill="#654121" transform="translate(477,38)"/>
<path d="M0 0 C2.48087198 2.48087198 3.27920046 4.77809745 4.6015625 8.03125 C5.09140625 9.23394531 5.58125 10.43664062 6.0859375 11.67578125 C6.46443848 12.61671631 6.46443848 12.61671631 6.85058594 13.57666016 C7.62307301 15.49521411 8.40464939 17.40987364 9.1875 19.32421875 C13 28.734437 13 28.734437 13 31 C11.68 30.67 10.36 30.34 9 30 C8.34 27.69 7.68 25.38 7 23 C0.565 23.495 0.565 23.495 -6 24 C-6.99 26.31 -7.98 28.62 -9 31 C-9.99 31 -10.98 31 -12 31 C-11.42118687 26.7520936 -10.41163896 23.14659723 -8.75 19.19921875 C-8.3065625 18.14025391 -7.863125 17.08128906 -7.40625 15.99023438 C-6.9421875 14.90033203 -6.478125 13.81042969 -6 12.6875 C-5.5359375 11.57826172 -5.071875 10.46902344 -4.59375 9.32617188 C-1.14834656 1.14834656 -1.14834656 1.14834656 0 0 Z " fill="#654121" transform="translate(213,38)"/>
<path d="M0 0 C3.7793076 1.75765593 6.83776411 3.41223046 8.8125 7.23828125 C8.8125 8.22828125 8.8125 9.21828125 8.8125 10.23828125 C7.8225 10.23828125 6.8325 10.23828125 5.8125 10.23828125 C4.46330468 8.58442892 3.13116272 6.91657925 1.8125 5.23828125 C-1.67578431 2.71228227 -4.98418393 2.73098448 -9.1875 3.23828125 C-12.15989241 5.02304366 -14.61354027 7.0903618 -16.1875 10.23828125 C-16.60818924 13.29729299 -16.67778455 16.18586451 -16.1875 19.23828125 C-13.91622666 22.26237489 -13.91622666 22.26237489 -11.1875 24.23828125 C-10.8575 24.56828125 -10.5275 24.89828125 -10.1875 25.23828125 C-5.41819825 25.85076 -1.99460737 25.65624757 2.3125 23.42578125 C5.03406216 21.41646061 5.03406216 21.41646061 5.8125 18.23828125 C2.1825 18.23828125 -1.4475 18.23828125 -5.1875 18.23828125 C-5.1875 17.24828125 -5.1875 16.25828125 -5.1875 15.23828125 C-0.2375 15.23828125 4.7125 15.23828125 9.8125 15.23828125 C8.78509133 21.40273325 8.0011012 22.95227072 3.8125 27.23828125 C-0.63987789 29.98251416 -5.10770204 29.873256 -10.1875 29.23828125 C-14.60802703 27.19174096 -17.26160604 24.61414614 -19.48828125 20.2265625 C-21.04426541 15.80200419 -21.25679033 11.50833204 -19.234375 7.21484375 C-14.55315196 0.19300919 -8.29066423 -2.88692772 0 0 Z " fill="#5D3B18" transform="translate(323.1875,39.76171875)"/>
<path d="M0 0 C4.51040348 2.38241825 8.14837577 5.14061544 10 10 C10.69671833 14.90943384 10.53659091 18.88554196 8.375 23.375 C5.13226355 26.95907713 2.53524104 29.59535241 -2.3984375 30.3828125 C-6.6572367 30.5746503 -9.47171739 30.24457528 -13.375 28.4375 C-17.83757365 24.29368161 -20.18091913 20.55372901 -20.5625 14.5 C-20.31894441 9.57849736 -18.49091795 6.40780086 -15 3 C-10.35702674 -0.27118571 -5.53266417 -1.16624456 0 0 Z M-16 9 C-17.55944339 12.11888678 -17.28316275 14.5454145 -17 18 C-15.40398686 21.93472545 -13.58734975 24.6084335 -10 27 C-5.3135743 27.76768116 -1.80309989 27.40885085 2.4375 25.25 C5.40936636 22.64055637 6.70800171 20.71817944 7.37109375 16.81640625 C7.49856341 12.48993595 7.46689879 10.6095623 4.75 7.0625 C-3.1899149 1.10756383 -9.28182289 1.67453004 -16 9 Z " fill="#55381A" transform="translate(672,39)"/>
<path d="M0 0 C0.99 0 1.98 0 3 0 C3.01981934 0.71655762 3.03963867 1.43311523 3.06005859 2.17138672 C3.15509519 5.4063063 3.26486019 8.64056094 3.375 11.875 C3.42140625 13.56689453 3.42140625 13.56689453 3.46875 15.29296875 C3.52675781 16.90751953 3.52675781 16.90751953 3.5859375 18.5546875 C3.6173584 19.54968262 3.6487793 20.54467773 3.68115234 21.56982422 C3.77247083 24.17854517 3.77247083 24.17854517 6 26 C8.1398632 26.318384 8.1398632 26.318384 10.5 26.25 C11.2940625 26.25515625 12.088125 26.2603125 12.90625 26.265625 C15.21892751 26.18939909 15.21892751 26.18939909 17 24 C17.37135915 21.47962036 17.37135915 21.47962036 17.4140625 18.5546875 C17.45273437 17.47832031 17.49140625 16.40195312 17.53125 15.29296875 C17.57765625 13.60107422 17.57765625 13.60107422 17.625 11.875 C17.66367187 10.73933594 17.70234375 9.60367188 17.7421875 8.43359375 C17.83667601 5.62256044 17.92223541 2.81153767 18 0 C19.32 0 20.64 0 22 0 C22.08761663 3.54150893 22.14059739 7.08273633 22.1875 10.625 C22.21263672 11.62402344 22.23777344 12.62304688 22.26367188 13.65234375 C22.31811793 19.13324677 22.32690037 23.37972039 19 28 C16.15435741 30.03513732 13.520657 30.37211746 10.0625 30.5 C9.22847656 30.5515625 8.39445312 30.603125 7.53515625 30.65625 C4.50204606 29.87109975 2.84681491 28.59337691 0.95727539 26.09472656 C-1.1135703 21.56326621 -0.49907881 16.49901248 -0.3125 11.625 C-0.28994141 10.50738281 -0.26738281 9.38976562 -0.24414062 8.23828125 C-0.18543378 5.4908011 -0.10336846 2.74610239 0 0 Z " fill="#5F4429" transform="translate(353,39)"/>
<path d="M0 0 C10 0 10 0 14 3 C14.25 6.6875 14.25 6.6875 14 10 C12.02 10.99 12.02 10.99 10 12 C11.65 15.3 13.3 18.6 15 22 C11 21 11 21 9.875 19.40625 C9.29166667 18.13541667 8.70833333 16.86458333 8.125 15.59375 C6.91913984 13.5174494 6.91913984 13.5174494 3 13 C3 15.97 3 18.94 3 22 C2.01 22 1.02 22 0 22 C0 14.74 0 7.48 0 0 Z " fill="#5E3918" transform="translate(318,125)"/>
<path d="M0 0 C10 0 10 0 14 3 C14.25 6.6875 14.25 6.6875 14 10 C12.02 10.99 12.02 10.99 10 12 C11.65 15.3 13.3 18.6 15 22 C11 21 11 21 9.875 19.40625 C9.29166667 18.13541667 8.70833333 16.86458333 8.125 15.59375 C6.91913984 13.5174494 6.91913984 13.5174494 3 13 C3 15.97 3 18.94 3 22 C2.01 22 1.02 22 0 22 C0 14.74 0 7.48 0 0 Z " fill="#5E3918" transform="translate(247,125)"/>
<path d="M0 0 C2.73080502 1.27167358 4.99910656 2.7370848 7 5 C7.6875 7.171875 7.6875 7.171875 8 9 C5.59886244 8.58601077 4.31157873 8.34014756 2.63671875 6.51171875 C-0.31453114 3.78586265 -4.1212993 3.87729945 -8 4 C-11.670261 5.56181319 -12.7727373 6.65910596 -15 10 C-15.61780406 14.28451124 -15.45715817 17.97683649 -13.6875 21.9375 C-11.98902321 24.21872261 -11.98902321 24.21872261 -9 26 C-2.64966803 26.50564454 -2.64966803 26.50564454 3 24 C3.66 23.01 4.32 22.02 5 21 C5.99 21 6.98 21 8 21 C7.66032174 24.17033042 7.00130809 24.99882607 4.5625 27.1875 C0.47145153 30.08116843 -2.35066614 30.50990276 -7.31640625 30.48828125 C-12.00288415 29.63557421 -15.04457405 26.60361336 -18 23 C-19.55408818 18.33773547 -19.72505056 13.85851637 -19 9 C-14.88814082 1.43257186 -8.36168019 -1.39127116 0 0 Z " fill="#57391A" transform="translate(625,39)"/>
<path d="M0 0 C4 1 4 1 6.140625 3.94140625 C6.85639433 5.14098262 7.5591527 6.34839984 8.25 7.5625 C8.61351562 8.17802734 8.97703125 8.79355469 9.3515625 9.42773438 C10.2456088 10.94526033 11.12431628 12.47180439 12 14 C12.33 9.38 12.66 4.76 13 0 C13.99 0 14.98 0 16 0 C16 7.26 16 14.52 16 22 C12 21 12 21 9.859375 17.83984375 C9.14296756 16.54633032 8.44025765 15.24515477 7.75 13.9375 C7.38648438 13.27427734 7.02296875 12.61105469 6.6484375 11.92773438 C5.75383252 10.29154895 4.87533933 8.64657276 4 7 C3.67 11.95 3.34 16.9 3 22 C2.01 22 1.02 22 0 22 C0 14.74 0 7.48 0 0 Z " fill="#72461E" transform="translate(605,125)"/>
<path d="M0 0 C4 1 4 1 6.140625 4.16015625 C6.85703244 5.45366968 7.55974235 6.75484523 8.25 8.0625 C8.61351562 8.72572266 8.97703125 9.38894531 9.3515625 10.07226562 C10.24616748 11.70845105 11.12466067 13.35342724 12 15 C12.33 10.05 12.66 5.1 13 0 C13.99 0 14.98 0 16 0 C16 7.26 16 14.52 16 22 C14.68 22 13.36 22 12 22 C8.04 15.07 8.04 15.07 4 8 C3.67 12.62 3.34 17.24 3 22 C2.01 22 1.02 22 0 22 C0 14.74 0 7.48 0 0 Z " fill="#603F29" transform="translate(531,125)"/>
<path d="M0 0 C1.32 0 2.64 0 4 0 C6.31 7.26 8.62 14.52 11 22 C9.68 22 8.36 22 7 22 C6.67 19.69 6.34 17.38 6 15 C3.36 15.33 0.72 15.66 -2 16 C-2.66 17.98 -3.32 19.96 -4 22 C-4.99 22 -5.98 22 -7 22 C-3.25 3.25 -3.25 3.25 0 0 Z " fill="#604024" transform="translate(586,125)"/>
<path d="M0 0 C1.32 0 2.64 0 4 0 C6.31 7.26 8.62 14.52 11 22 C9.68 22 8.36 22 7 22 C6.67 19.69 6.34 17.38 6 15 C3.36 15.33 0.72 15.66 -2 16 C-2.66 17.98 -3.32 19.96 -4 22 C-4.99 22 -5.98 22 -7 22 C-3.25 3.25 -3.25 3.25 0 0 Z " fill="#604024" transform="translate(408,125)"/>
<path d="M0 0 C1.65 0.33 3.3 0.66 5 1 C6.00736628 3.93502595 7.00460504 6.87339461 8 9.8125 C8.28617188 10.64587891 8.57234375 11.47925781 8.8671875 12.33789062 C9.13789063 13.14033203 9.40859375 13.94277344 9.6875 14.76953125 C9.93886719 15.50792236 10.19023437 16.24631348 10.44921875 17.00708008 C11 19 11 19 11 22 C10.01 22 9.02 22 8 22 C7.34 20.02 6.68 18.04 6 16 C3.36 15.67 0.72 15.34 -2 15 C-2.66 17.31 -3.32 19.62 -4 22 C-4.66 22 -5.32 22 -6 22 C-5.40421223 16.73378394 -4.18691204 12.05591981 -2.4375 7.0625 C-2.20353516 6.37865234 -1.96957031 5.69480469 -1.72851562 4.99023438 C-1.15788171 3.32491499 -0.57972902 1.66217507 0 0 Z " fill="#584030" transform="translate(227,125)"/>
<path d="M0 0 C0.99 0 1.98 0 3 0 C3 2.97 3 5.94 3 9 C6.3 9 9.6 9 13 9 C13 6.03 13 3.06 13 0 C13.99 0 14.98 0 16 0 C16 7.26 16 14.52 16 22 C15.01 22 14.02 22 13 22 C13 18.7 13 15.4 13 12 C9.7 12 6.4 12 3 12 C3 15.3 3 18.6 3 22 C2.01 22 1.02 22 0 22 C0 14.74 0 7.48 0 0 Z " fill="#5F4736" transform="translate(196,125)"/>
<path d="M0 0 C3.55580035 0.93384656 4.9096867 2.50261718 6.93359375 5.5078125 C8.29079465 10.09363418 8.33228537 13.46362015 6.62109375 17.9453125 C4.93359375 20.5078125 4.93359375 20.5078125 2.93359375 22.5078125 C-0.10405241 23.01213213 -3.02329764 22.95723957 -6.06640625 22.5078125 C-9.098563 20.30949886 -9.88295023 19.05818056 -11.06640625 15.5078125 C-11.67920297 10.91183707 -11.83110709 6.84187072 -9.06640625 2.9453125 C-5.73093954 0.2352458 -4.18376408 -0.36380557 0 0 Z M-6.31640625 4.5078125 C-8.5505774 8.33782019 -8.93163862 11.17291094 -8.06640625 15.5078125 C-6.56299167 18.57666764 -6.56299167 18.57666764 -4.06640625 20.5078125 C-1.52313517 21.17467188 -1.52313517 21.17467188 0.93359375 20.5078125 C3.43840485 18.62920417 3.9206 17.54679376 4.93359375 14.5078125 C5.43086712 10.03235217 5.46599463 8.20289142 2.68359375 4.5703125 C-0.89712117 1.88477631 -2.86568028 1.44050053 -6.31640625 4.5078125 Z " fill="#553310" transform="translate(486.06640625,124.4921875)"/>
<path d="M0 0 C-3.96 1.98 -3.96 1.98 -8 4 C-7.46801733 8.25586138 -5.84120467 11.50551586 -3.83984375 15.23046875 C-3 17 -3 17 -3 19 C-4.98 19.33 -6.96 19.66 -9 20 C-10.00508801 18.21118264 -11.00392736 16.41885304 -12 14.625 C-12.8353125 13.12839844 -12.8353125 13.12839844 -13.6875 11.6015625 C-15 9 -15 9 -15 7 C-15.66 7 -16.32 7 -17 7 C-16.67 8.98 -16.34 10.96 -16 13 C-17.9375 12.3125 -17.9375 12.3125 -20 11 C-20.75 8.375 -20.75 8.375 -21 6 C-19.16923165 5.30914402 -17.33784485 4.61989576 -15.50390625 3.9375 C-13.69531493 3.26033632 -11.89113894 2.57133962 -10.08984375 1.875 C-9.11144531 1.50375 -8.13304687 1.1325 -7.125 0.75 C-6.19945312 0.39421875 -5.27390625 0.0384375 -4.3203125 -0.328125 C-2 -1 -2 -1 0 0 Z " fill="#5EB357" transform="translate(147,130)"/>
<path d="M0 0 C4.29 0 8.58 0 13 0 C13 0.99 13 1.98 13 3 C9.7 3 6.4 3 3 3 C3 4.98 3 6.96 3 9 C5.97 9 8.94 9 12 9 C12 9.99 12 10.98 12 12 C9.03 12 6.06 12 3 12 C3 14.31 3 16.62 3 19 C6.3 19 9.6 19 13 19 C13 19.99 13 20.98 13 22 C8.71 22 4.42 22 0 22 C0 14.74 0 7.48 0 0 Z " fill="#704C25" transform="translate(342,125)"/>
<path d="M0 0 C3.96 0 7.92 0 12 0 C12 0.99 12 1.98 12 3 C9.03 3 6.06 3 3 3 C3 4.98 3 6.96 3 9 C5.64 9 8.28 9 11 9 C11 9.99 11 10.98 11 12 C8.36 12 5.72 12 3 12 C3 14.31 3 16.62 3 19 C6.3 19 9.6 19 13 19 C13 19.99 13 20.98 13 22 C8.71 22 4.42 22 0 22 C0 14.74 0 7.48 0 0 Z " fill="#5D462D" transform="translate(295,125)"/>
<path d="M0 0 C0.99 0 1.98 0 3 0 C3.06058594 1.20398438 3.12117188 2.40796875 3.18359375 3.6484375 C3.26799732 5.22397077 3.35264541 6.79949096 3.4375 8.375 C3.47681641 9.1690625 3.51613281 9.963125 3.55664062 10.78125 C3.68893404 15.02601221 3.68893404 15.02601221 5 19 C7.41619823 19.25030977 7.41619823 19.25030977 10 19 C12.48044315 15.27933528 12.44381173 12.13459526 12.625 7.8125 C12.68300781 6.68811523 12.68300781 6.68811523 12.7421875 5.54101562 C12.83628216 3.69440801 12.91922319 1.8472381 13 0 C13.99 0 14.98 0 16 0 C16.1083667 2.7302389 16.18746694 5.45614543 16.25 8.1875 C16.30027344 9.34088867 16.30027344 9.34088867 16.3515625 10.51757812 C16.41892904 14.44167882 16.26650796 16.53616786 14.26953125 20.01171875 C11.74832813 22.22048362 10.74080648 22.68089351 7.4375 22.625 C6.67308594 22.63789063 5.90867187 22.65078125 5.12109375 22.6640625 C3 22 3 22 1.234375 20.01171875 C-0.42299774 15.96793906 -0.32869839 12.50672248 -0.1875 8.1875 C-0.17396484 7.39923828 -0.16042969 6.61097656 -0.14648438 5.79882812 C-0.11133456 3.86558831 -0.05753361 1.93270318 0 0 Z " fill="#5B3F2A" transform="translate(504,125)"/>
<path d="M0 0 C6 0 6 0 8.375 1.5 C10.65416433 5.00640667 10.81753559 7.92900647 10 12 C8.375 14.5 8.375 14.5 6 16 C4.02 16 2.04 16 0 16 C0 10.72 0 5.44 0 0 Z " fill="#DBD2CA" transform="translate(368,128)"/>
<path d="M0 0 C0.66 0 1.32 0 2 0 C3.33333333 1.66666667 4.66666667 3.33333333 6 5 C6.66 5 7.32 5 8 5 C8.33 4.34 8.66 3.68 9 3 C9.99 3.33 10.98 3.66 12 4 C11.608125 4.9075 11.21625 5.815 10.8125 6.75 C10.544375 7.8225 10.27625 8.895 10 10 C11.28350327 12.26757564 11.28350327 12.26757564 13 14 C13 14.66 13 15.32 13 16 C9 16 9 16 7.25 14.5 C6.8375 14.005 6.425 13.51 6 13 C5.505 13.495 5.01 13.99 4.5 14.5 C0.77354157 16.73587506 -1.67911757 16.41151261 -6 16 C-8 15 -8 15 -9 13 C-9.23059307 10.28114681 -9.13475823 7.74008408 -9 5 C-8.01 5 -7.02 5 -6 5 C-6.020625 5.969375 -6.04125 6.93875 -6.0625 7.9375 C-6.35618499 10.87465895 -6.35618499 10.87465895 -5 12 C-3.00041636 12.04080783 -0.99954746 12.04254356 1 12 C1.66 10.68 2.32 9.36 3 8 C2.319375 7.236875 1.63875 6.47375 0.9375 5.6875 C0.298125 4.800625 -0.34125 3.91375 -1 3 C-0.67 2.01 -0.34 1.02 0 0 Z " fill="#5A3A19" transform="translate(545,53)"/>
<path d="M0 0 C5.94 0 11.88 0 18 0 C18 1.32 18 2.64 18 4 C15.69 4 13.38 4 11 4 C11 12.58 11 21.16 11 30 C10.01 30 9.02 30 8 30 C8 21.09 8 12.18 8 3 C5.36 3 2.72 3 0 3 C0 2.01 0 1.02 0 0 Z " fill="#5C4128" transform="translate(430,39)"/>
<path d="M0 0 C5.94 0 11.88 0 18 0 C18 1.32 18 2.64 18 4 C15.69 4 13.38 4 11 4 C11 12.58 11 21.16 11 30 C10.01 30 9.02 30 8 30 C8 21.09 8 12.18 8 3 C5.36 3 2.72 3 0 3 C0 2.01 0 1.02 0 0 Z " fill="#5C4128" transform="translate(166,39)"/>
<path d="M0 0 C5.94 0 11.88 0 18 0 C18 1.32 18 2.64 18 4 C15.69 4 13.38 4 11 4 C11 12.58 11 21.16 11 30 C10.01 30 9.02 30 8 30 C8 21.09 8 12.18 8 3 C5.36 3 2.72 3 0 3 C0 2.01 0 1.02 0 0 Z " fill="#5C4128" transform="translate(132,39)"/>
<path d="M0 0 C0.66 1.32 1.32 2.64 2 4 C-0.64 3.67 -3.28 3.34 -6 3 C-6.33 4.32 -6.66 5.64 -7 7 C-6.36191406 7.34933594 -5.72382812 7.69867188 -5.06640625 8.05859375 C-4.24011719 8.51363281 -3.41382813 8.96867188 -2.5625 9.4375 C-1.73878906 9.88996094 -0.91507813 10.34242188 -0.06640625 10.80859375 C2 12 2 12 3 13 C3.46665026 18.36647797 3.46665026 18.36647797 1.765625 20.67578125 C-0.46906539 22.35179904 -1.73189324 22.37247565 -4.5 22.3125 C-5.2734375 22.30863281 -6.046875 22.30476563 -6.84375 22.30078125 C-9 22 -9 22 -12 20 C-12 19.34 -12 18.68 -12 18 C-8.7 18.33 -5.4 18.66 -2 19 C-1.34 17.35 -0.68 15.7 0 14 C-0.886875 13.7525 -1.77375 13.505 -2.6875 13.25 C-6.19705131 11.92564102 -8.3879788 10.68884535 -11 8 C-11.56152444 5.12218727 -11.41113901 3.74518945 -10 1.1875 C-6.76011038 -0.73618446 -3.7174181 -0.18282384 0 0 Z " fill="#5F3E1E" transform="translate(666,125)"/>
<path d="M0 0 C3 1 3 1 4.38671875 3.65234375 C4.81597656 4.73644531 5.24523437 5.82054687 5.6875 6.9375 C6.34298828 8.55978516 6.34298828 8.55978516 7.01171875 10.21484375 C8 13 8 13 8 15 C6.68 14.67 5.36 14.34 4 14 C3.34 11.69 2.68 9.38 2 7 C-4.435 7.495 -4.435 7.495 -11 8 C-11.99 10.31 -12.98 12.62 -14 15 C-14.99 15 -15.98 15 -17 15 C-16.40762758 10.14254615 -15.20835969 6.33178248 -13 2 C-12.01 1.67 -11.02 1.34 -10 1 C-10 1.99 -10 2.98 -10 4 C-6.7 4 -3.4 4 0 4 C0 2.68 0 1.36 0 0 Z " fill="#573714" transform="translate(482,54)"/>
<path d="M0 0 C3 1 3 1 4.38671875 3.65234375 C4.81597656 4.73644531 5.24523437 5.82054687 5.6875 6.9375 C6.34298828 8.55978516 6.34298828 8.55978516 7.01171875 10.21484375 C8 13 8 13 8 15 C6.68 14.67 5.36 14.34 4 14 C3.34 11.69 2.68 9.38 2 7 C-4.435 7.495 -4.435 7.495 -11 8 C-11.99 10.31 -12.98 12.62 -14 15 C-14.99 15 -15.98 15 -17 15 C-16.40762758 10.14254615 -15.20835969 6.33178248 -13 2 C-12.01 1.67 -11.02 1.34 -10 1 C-10 1.99 -10 2.98 -10 4 C-6.7 4 -3.4 4 0 4 C0 2.68 0 1.36 0 0 Z " fill="#573714" transform="translate(218,54)"/>
<path d="M0 0 C1.60875 -0.04125 3.2175 -0.0825 4.875 -0.125 C5.77992188 -0.14820313 6.68484375 -0.17140625 7.6171875 -0.1953125 C10 0 10 0 12 2 C12.34490322 6.05261287 12.30163882 7.54754176 10 11 C7.6171875 11.29296875 7.6171875 11.29296875 4.875 11.1875 C2.461875 11.0946875 2.461875 11.0946875 0 11 C0 7.37 0 3.74 0 0 Z " fill="#E2D4CA" transform="translate(399,43)"/>
<path d="M0 0 C0.99 0 1.98 0 3 0 C3 8.91 3 17.82 3 27 C6.3 27 9.6 27 13 27 C13 27.99 13 28.98 13 30 C8.71 30 4.42 30 0 30 C0 20.1 0 10.2 0 0 Z " fill="#583011" transform="translate(245,39)"/>
<path d="M0 0 C0.66 0 1.32 0 2 0 C3.32 2.97 4.64 5.94 6 9 C7.98 9 9.96 9 12 9 C9.42853943 11.57146057 7.3949583 11.80117997 3.875 12.625 C2.77929688 12.88539063 1.68359375 13.14578125 0.5546875 13.4140625 C-0.28835937 13.60742188 -1.13140625 13.80078125 -2 14 C-1.67 15.65 -1.34 17.3 -1 19 C-1.99 19 -2.98 19 -4 19 C-4.33 17.68 -4.66 16.36 -5 15 C-5.66 15 -6.32 15 -7 15 C-7 12 -7 12 -5.63671875 10.60546875 C-5.09660156 10.07566406 -4.55648437 9.54585937 -4 9 C-2.7951851 6.73972655 -2.7951851 6.73972655 -1.8125 4.3125 C-1.46832031 3.50425781 -1.12414062 2.69601563 -0.76953125 1.86328125 C-0.38861328 0.94095703 -0.38861328 0.94095703 0 0 Z " fill="#DCCEC7" transform="translate(125,121)"/>
<path d="M0 0 C3.875 0.5625 3.875 0.5625 5.875 2.0625 C6.37 2.805 6.37 2.805 6.875 3.5625 C2.875 3.5625 2.875 3.5625 0.3125 3.3125 C-2.20045441 3.34213643 -2.20045441 3.34213643 -3.9375 5.0625 C-5.6221479 8.60912716 -5.70235621 11.70291327 -5.125 15.5625 C-4.12463019 18.12258963 -4.12463019 18.12258963 -2.125 19.5625 C1.08179859 19.97362802 3.79337616 19.47557373 6.875 18.5625 C6.215 19.8825 5.555 21.2025 4.875 22.5625 C-3.26169065 23.18839928 -3.26169065 23.18839928 -6.625 20.75 C-9.63454262 16.36108368 -9.87830585 11.71300979 -9.125 6.5625 C-7.28771194 2.33845456 -4.63253358 0.20513064 0 0 Z " fill="#6A3F17" transform="translate(435.125,124.4375)"/>
<path d="M0 0 C3.875 0.5625 3.875 0.5625 5.875 2.0625 C6.37 2.805 6.37 2.805 6.875 3.5625 C2.875 3.5625 2.875 3.5625 0.3125 3.3125 C-2.20045441 3.34213643 -2.20045441 3.34213643 -3.9375 5.0625 C-5.6221479 8.60912716 -5.70235621 11.70291327 -5.125 15.5625 C-4.12463019 18.12258963 -4.12463019 18.12258963 -2.125 19.5625 C1.08179859 19.97362802 3.79337616 19.47557373 6.875 18.5625 C6.215 19.8825 5.555 21.2025 4.875 22.5625 C-3.26169065 23.18839928 -3.26169065 23.18839928 -6.625 20.75 C-9.63454262 16.36108368 -9.87830585 11.71300979 -9.125 6.5625 C-7.28771194 2.33845456 -4.63253358 0.20513064 0 0 Z " fill="#6A3F17" transform="translate(179.125,124.4375)"/>
<path d="M0 0 C0.66 1.32 1.32 2.64 2 4 C-0.97851562 3.46289062 -0.97851562 3.46289062 -3.95703125 2.92578125 C-6.06668506 2.82327552 -6.06668506 2.82327552 -7.74609375 4.16796875 C-9.39445099 6.57631624 -9.33619286 8.10392004 -9.25 11 C-9.23453125 11.86625 -9.2190625 12.7325 -9.203125 13.625 C-9.0807181 16.14823779 -9.0807181 16.14823779 -8 19 C-2.42169984 19.12469099 -2.42169984 19.12469099 3 18 C2 21 2 21 0 22 C-7.24087591 22.58394161 -7.24087591 22.58394161 -10.4375 20.125 C-13.88004622 15.44313714 -13.7004304 10.65231041 -13 5 C-9.46552245 -0.63307359 -6.11976779 -0.51862439 0 0 Z " fill="#64380C" transform="translate(464,125)"/>
<path d="M0 0 C5.28 0 10.56 0 16 0 C16 0.99 16 1.98 16 3 C14.02 3 12.04 3 10 3 C10 9.27 10 15.54 10 22 C9.01 22 8.02 22 7 22 C7 15.73 7 9.46 7 3 C4.69 3 2.38 3 0 3 C0 2.01 0 1.02 0 0 Z " fill="#5A3F26" transform="translate(630,125)"/>
<path d="M0 0 C5.28 0 10.56 0 16 0 C16 0.99 16 1.98 16 3 C14.02 3 12.04 3 10 3 C10 9.27 10 15.54 10 22 C9.01 22 8.02 22 7 22 C7 15.73 7 9.46 7 3 C4.69 3 2.38 3 0 3 C0 2.01 0 1.02 0 0 Z " fill="#5A3F26" transform="translate(556,125)"/>
<path d="M0 0 C5.28 0 10.56 0 16 0 C16 0.99 16 1.98 16 3 C14.02 3 12.04 3 10 3 C10 9.27 10 15.54 10 22 C9.01 22 8.02 22 7 22 C7 15.73 7 9.46 7 3 C4.69 3 2.38 3 0 3 C0 2.01 0 1.02 0 0 Z " fill="#5A3F26" transform="translate(269,125)"/>
<path d="M0 0 C1.28132813 0.00902344 2.56265625 0.01804687 3.8828125 0.02734375 C4.87023437 0.03894531 5.85765625 0.05054687 6.875 0.0625 C6.875 1.3825 6.875 2.7025 6.875 4.0625 C6.08996094 4.09988281 5.30492188 4.13726562 4.49609375 4.17578125 C-2.519686 4.53123433 -2.519686 4.53123433 -9.125 6.6875 C-12.36605866 8.17298522 -12.9268885 8.09637225 -16.125 7.0625 C-15.00220538 6.08080524 -13.87668527 5.10222702 -12.75 4.125 C-11.81027344 3.30708984 -11.81027344 3.30708984 -10.8515625 2.47265625 C-7.30172262 -0.42664736 -4.50873579 -0.04098851 0 0 Z " fill="#31658C" transform="translate(110.125,114.9375)"/>
<path d="M0 0 C0.66 0.33 1.32 0.66 2 1 C0 4 -2 7 -4 10 C-4.4949529 15.24650072 -3.72011372 18.50135039 -1 23 C-0.34 23.66 0.32 24.32 1 25 C0.01 25.66 -0.98 26.32 -2 27 C-6.53321928 21.76936237 -8.41294143 18.40161931 -8.35546875 11.35546875 C-7.76731916 7.45816985 -5.72193299 4.76793749 -3 2 C-2.01 1.34 -1.02 0.68 0 0 Z " fill="#58381A" transform="translate(660,40)"/>
<path d="M0 0 C0.99 0 1.98 0 3 0 C3 9.9 3 19.8 3 30 C2.01 30 1.02 30 0 30 C0 20.1 0 10.2 0 0 Z " fill="#503C2D" transform="translate(111,39)"/>
<path d="M0 0 C2.86314093 1.38818954 4.23065505 3.44850168 6.0625 6 C4.1875 9.875 4.1875 9.875 3.0625 11 C0.125 11.1875 0.125 11.1875 -2.9375 11 C-4.9375 9 -4.9375 9 -5.25 6.0625 C-4.9375 3 -4.9375 3 -3.6875 1.0625 C-1.9375 0 -1.9375 0 0 0 Z " fill="#D8CEC6" transform="translate(542.9375,55)"/>
<path d="M0 0 C1.32 0 2.64 0 4 0 C5.10228696 4.40914783 5.07654536 8.48382401 5 13 C3.88625 12.979375 2.7725 12.95875 1.625 12.9375 C-1.83215921 12.73619282 -1.83215921 12.73619282 -4 14 C-3.46148032 8.72250715 -2.22656164 4.74354436 0 0 Z " fill="#6C4625" transform="translate(586,125)"/>
<path d="M0 0 C1.32 0 2.64 0 4 0 C5.10228696 4.40914783 5.07654536 8.48382401 5 13 C3.88625 12.979375 2.7725 12.95875 1.625 12.9375 C-1.83215921 12.73619282 -1.83215921 12.73619282 -4 14 C-3.46148032 8.72250715 -2.22656164 4.74354436 0 0 Z " fill="#6C4625" transform="translate(408,125)"/>
<path d="M0 0 C0.33 0 0.66 0 1 0 C2.69897063 8.51167462 2.69897063 8.51167462 1.09375 11.9296875 C-1.85743696 15.54669103 -4.84573815 17.73794919 -9.47265625 18.30078125 C-10.32730469 18.30464844 -11.18195312 18.30851562 -12.0625 18.3125 C-13.34833984 18.33763672 -13.34833984 18.33763672 -14.66015625 18.36328125 C-17.42104781 17.93462864 -18.27778897 17.14005895 -20 15 C-17.10087628 14.03362543 -15.59813881 13.97279153 -12.625 14.125 C-8.57778499 14.16448502 -6.18139436 13.69936491 -3 11 C-0.63074482 7.68304275 -0.45898886 3.97790347 0 0 Z " fill="#573710" transform="translate(679,51)"/>
<path d="M0 0 C1 1 1 1 1.375 4.75 C1.36162636 8.46787234 1.06306844 8.92431788 -1.5 12 C-2.325 12.66 -3.15 13.32 -4 14 C-4.33 13.34 -4.66 12.68 -5 12 C-4.690625 11.4225 -4.38125 10.845 -4.0625 10.25 C-2.70280363 7.37064299 -2.79018159 5.14727619 -3 2 C-4.66342837 0.33657163 -6.7825709 0.63951903 -9.0625 0.4375 C-10.691875 0.293125 -12.32125 0.14875 -14 0 C-14 3.63 -14 7.26 -14 11 C-11.36 11 -8.72 11 -6 11 C-6 11.33 -6 11.66 -6 12 C-8.97 12 -11.94 12 -15 12 C-15 7.71 -15 3.42 -15 -1 C-3.68158199 -2.34743072 -3.68158199 -2.34743072 0 0 Z " fill="#695444" transform="translate(413,43)"/>
<path d="M0 0 C1.32 0 2.64 0 4 0 C5.10228696 4.40914783 5.07654536 8.48382401 5 13 C3.02 13 1.04 13 -1 13 C-2.0070238 7.96488101 -1.97387813 4.76052962 0 0 Z " fill="#6A3E14" transform="translate(227,125)"/>
<path d="M0 0 C0.99 0 1.98 0 3 0 C3 7.26 3 14.52 3 22 C1.68 22 0.36 22 -1 22 C-0.67 14.74 -0.34 7.48 0 0 Z " fill="#5E4536" transform="translate(544,125)"/>
<path d="M0 0 C0.66 0 1.32 0 2 0 C2.67354499 1.43429001 3.33859701 2.87257057 4 4.3125 C4.556875 5.51326172 4.556875 5.51326172 5.125 6.73828125 C6 9 6 9 6 12 C2.7 12 -0.6 12 -4 12 C-2.68 8.04 -1.36 4.08 0 0 Z " fill="#D7CCC1" transform="translate(476,46)"/>
<path d="M0 0 C0.66 0 1.32 0 2 0 C2.67354499 1.43429001 3.33859701 2.87257057 4 4.3125 C4.556875 5.51326172 4.556875 5.51326172 5.125 6.73828125 C6 9 6 9 6 12 C2.7 12 -0.6 12 -4 12 C-2.68 8.04 -1.36 4.08 0 0 Z " fill="#D7CCC1" transform="translate(212,46)"/>
<path d="M0 0 C3.31359665 0.10844498 4.21520161 0.45577128 7.125 2.375 C9.81028287 6.3622382 10.0743157 9.71462767 10.1875 14.4375 C9.8575 14.4375 9.5275 14.4375 9.1875 14.4375 C9.1875 12.7875 9.1875 11.1375 9.1875 9.4375 C8.5275 9.4375 7.8675 9.4375 7.1875 9.4375 C6.56875 8.2309375 6.56875 8.2309375 5.9375 7 C4.38022624 4.18347716 4.38022624 4.18347716 1.25 3.375 C-1.92764894 3.12520797 -1.92764894 3.12520797 -4.1875 5.375 C-4.72375 6.055625 -5.26 6.73625 -5.8125 7.4375 C-6.4725 7.1075 -7.1325 6.7775 -7.8125 6.4375 C-5.80292057 2.13125836 -5.01057041 0.57498349 0 0 Z " fill="#583715" transform="translate(483.8125,124.5625)"/>
<path d="M0 0 C3.88694884 1.46175854 5.00815228 3.30126163 6.75 7 C7.17796875 7.886875 7.6059375 8.77375 8.046875 9.6875 C9 12 9 12 9 14 C6.6796875 13.8046875 6.6796875 13.8046875 4 13 C2.3828125 10.8203125 2.3828125 10.8203125 1.125 8.125 C0.69445312 7.24070313 0.26390625 6.35640625 -0.1796875 5.4453125 C-1 3 -1 3 0 0 Z " fill="#225D87" transform="translate(135,135)"/>
<path d="M0 0 C0.99 0.495 0.99 0.495 2 1 C1.67 3.97 1.34 6.94 1 10 C4.96 10 8.92 10 13 10 C13 10.33 13 10.66 13 11 C9.7 11 6.4 11 3 11 C3 14.63 3 18.26 3 22 C2.01 22 1.02 22 0 22 C0 14.74 0 7.48 0 0 Z " fill="#5E3518" transform="translate(196,125)"/>
<path d="M0 0 C2.31 0 4.62 0 7 0 C7 0.33 7 0.66 7 1 C5.35 1 3.7 1 2 1 C2 6.94 2 12.88 2 19 C3.65 19 5.3 19 7 19 C7 19.66 7 20.32 7 21 C4.69 21 2.38 21 0 21 C0 14.07 0 7.14 0 0 Z " fill="#4B2D11" transform="translate(366,126)"/>
<path d="M0 0 C-1.9570868 0.67031719 -3.91571113 1.33614683 -5.875 2 C-6.96554688 2.37125 -8.05609375 2.7425 -9.1796875 3.125 C-12 4 -12 4 -14 4 C-13.67 5.65 -13.34 7.3 -13 9 C-13.99 9 -14.98 9 -16 9 C-16.33 7.68 -16.66 6.36 -17 5 C-17.66 5 -18.32 5 -19 5 C-19 4.01 -19 3.02 -19 2 C-16.58525383 1.46839543 -14.16891893 0.94945234 -11.75 0.4375 C-11.06808594 0.28603516 -10.38617188 0.13457031 -9.68359375 -0.02148438 C-6.18230962 -0.75233495 -3.39701827 -1.32203546 0 0 Z " fill="#E57D32" transform="translate(137,131)"/>
<path d="M0 0 C2.33294775 -0.04241723 4.66702567 -0.04092937 7 0 C8 1 8 1 8.125 3.5 C8 6 8 6 7 7 C4.66702567 7.04092937 2.33294775 7.04241723 0 7 C0 4.69 0 2.38 0 0 Z " fill="#E0D5CE" transform="translate(321,128)"/>
<path d="M0 0 C2.33294775 -0.04241723 4.66702567 -0.04092937 7 0 C8 1 8 1 8.125 3.5 C8 6 8 6 7 7 C4.66702567 7.04092937 2.33294775 7.04241723 0 7 C0 4.69 0 2.38 0 0 Z " fill="#E0D5CE" transform="translate(250,128)"/>
<path d="M0 0 C0.33 0 0.66 0 1 0 C1.38614349 6.8218683 0.00865708 12.49577707 -2 19 C-2.99 19 -3.98 19 -5 19 C-4.55018927 16.39409649 -4.09055778 13.79059469 -3.625 11.1875 C-3.49867187 10.44951172 -3.37234375 9.71152344 -3.2421875 8.95117188 C-2.59836518 5.39405354 -2.03003944 3.04505916 0 0 Z " fill="#603A18" transform="translate(64,50)"/>
<path d="M0 0 C0.33 0 0.66 0 1 0 C1 2.31 1 4.62 1 7 C1.94875 6.95875 2.8975 6.9175 3.875 6.875 C7 7 7 7 9 9 C9.71247732 10.6476038 10.37400383 12.31763529 11 14 C11.37125 14.928125 11.7425 15.85625 12.125 16.8125 C12.41375 17.534375 12.7025 18.25625 13 19 C11.25 18.9375 11.25 18.9375 9 18 C7.97309985 16.23501536 6.95005434 14.46596472 6.01171875 12.65234375 C4.70492516 10.51808241 3.33771313 9.80610798 1 9 C0 8 0 8 -0.09765625 6.15234375 C-0.06510417 4.1015625 -0.03255208 2.05078125 0 0 Z " fill="#674F3B" transform="translate(320,128)"/>
<path d="M0 0 C0.33 0 0.66 0 1 0 C1 2.31 1 4.62 1 7 C1.94875 6.95875 2.8975 6.9175 3.875 6.875 C7 7 7 7 9 9 C9.71247732 10.6476038 10.37400383 12.31763529 11 14 C11.37125 14.928125 11.7425 15.85625 12.125 16.8125 C12.41375 17.534375 12.7025 18.25625 13 19 C11.25 18.9375 11.25 18.9375 9 18 C7.97309985 16.23501536 6.95005434 14.46596472 6.01171875 12.65234375 C4.70492516 10.51808241 3.33771313 9.80610798 1 9 C0 8 0 8 -0.09765625 6.15234375 C-0.06510417 4.1015625 -0.03255208 2.05078125 0 0 Z " fill="#674F3B" transform="translate(249,128)"/>
<path d="M0 0 C0.33 0.99 0.66 1.98 1 3 C-0.72744016 3.65043719 -2.4570369 4.29514844 -4.1875 4.9375 C-5.15042969 5.29714844 -6.11335937 5.65679687 -7.10546875 6.02734375 C-10 7 -10 7 -12.78125 7.46875 C-13.5134375 7.6440625 -14.245625 7.819375 -15 8 C-16.37466625 10.47636012 -16.37466625 10.47636012 -17 13 C-17.66 12.67 -18.32 12.34 -19 12 C-19 10.35 -19 8.7 -19 7 C-17.0429132 6.32968281 -15.08428887 5.66385317 -13.125 5 C-12.03445312 4.62875 -10.94390625 4.2575 -9.8203125 3.875 C-7 3 -7 3 -5 3 C-5 2.34 -5 1.68 -5 1 C-3 0 -3 0 0 0 Z " fill="#D4BFA8" transform="translate(142,128)"/>
<path d="M0 0 C2.375 -0.125 2.375 -0.125 5 0 C5.66 0.66 6.32 1.32 7 2 C6.44444444 6.55555556 6.44444444 6.55555556 5 8 C3.33382885 8.04063832 1.66611905 8.042721 0 8 C0 5.36 0 2.72 0 0 Z " fill="#6E899F" transform="translate(115,151)"/>
<path d="M0 0 C0.66 0 1.32 0 2 0 C2 2.31 2 4.62 2 7 C5.3 7 8.6 7 12 7 C12 7.99 12 8.98 12 10 C8.04 10 4.08 10 0 10 C0 6.7 0 3.4 0 0 Z " fill="#55381A" transform="translate(343,137)"/>
<path d="M0 0 C0.33 0 0.66 0 1 0 C1.22786458 1.98567708 1.45572917 3.97135417 1.68359375 5.95703125 C1.97170735 8.19396393 1.97170735 8.19396393 3 11 C8.57830016 11.12469099 8.57830016 11.12469099 14 10 C13 13 13 13 11 14 C3.69636497 14.46372286 3.69636497 14.46372286 1.2578125 12.83984375 C-0.50262386 10.26479553 -0.29639324 8.39780834 -0.1875 5.3125 C-0.16042969 4.31863281 -0.13335937 3.32476562 -0.10546875 2.30078125 C-0.07066406 1.54152344 -0.03585937 0.78226563 0 0 Z " fill="#564336" transform="translate(453,133)"/>
<path d="M0 0 C0.33 0 0.66 0 1 0 C1 1.65 1 3.3 1 5 C4.465 4.505 4.465 4.505 8 4 C8 4.66 8 5.32 8 6 C5.29120665 7.35439668 2.99066732 7.06501451 0 7 C-0.66 9.31 -1.32 11.62 -2 14 C-2.66 14 -3.32 14 -4 14 C-3.46148032 8.72250715 -2.22656164 4.74354436 0 0 Z " fill="#693E12" transform="translate(225,133)"/>
<path d="M0 0 C0.66 0 1.32 0 2 0 C2 7.26 2 14.52 2 22 C1.01 22 0.02 22 -1 22 C-0.67 14.74 -0.34 7.48 0 0 Z " fill="#4C352C" transform="translate(619,125)"/>
<path d="M0 0 C0.66 0.33 1.32 0.66 2 1 C-1.58333333 6.63095238 -1.58333333 6.63095238 -4.1875 8.9375 C-6.68652109 11.78121366 -6.7156098 14.30292739 -7 18 C-7.33 18 -7.66 18 -8 18 C-8.61623255 11.96092104 -8.1850286 8.23503633 -4.38671875 3.41015625 C-3 2 -3 2 0 0 Z " fill="#66421C" transform="translate(660,40)"/>
<path d="M0 0 C0.99 0.33 1.98 0.66 3 1 C2.07038578 2.15224028 1.1309875 3.29659176 0.1875 4.4375 C-0.59560547 5.39462891 -0.59560547 5.39462891 -1.39453125 6.37109375 C-3 8 -3 8 -6 9 C-6.33 12.3 -6.66 15.6 -7 19 C-7.33 19 -7.66 19 -8 19 C-8.91501926 9.62952503 -8.91501926 9.62952503 -6.734375 5.74609375 C-4.6626254 3.33743342 -2.85483832 1.42741916 0 0 Z " fill="#643A10" transform="translate(614,40)"/>
<path d="M0 0 C0.66 0.33 1.32 0.66 2 1 C2 2.98 2 4.96 2 7 C4.31 7.66 6.62 8.32 9 9 C8.67 9.99 8.34 10.98 8 12 C2.66666667 12.35555556 2.66666667 12.35555556 0.125 11 C-1.72802556 7.70573233 -1.24096594 4.73497211 -1 1 C-0.67 0.67 -0.34 0.34 0 0 Z " fill="#523313" transform="translate(537,57)"/>
<path d="M0 0 C0.6875 1.8125 0.6875 1.8125 1 4 C-0.4375 5.75 -0.4375 5.75 -2 7 C-3.32 6.34 -4.64 5.68 -6 5 C-6 3.35 -6 1.7 -6 0 C-3.50907189 -1.24546405 -2.58919267 -0.7767578 0 0 Z " fill="#D0C5BC" transform="translate(547,43)"/>
<path d="M0 0 C0.66 0 1.32 0 2 0 C2.125 2.375 2.125 2.375 2 5 C0 7 0 7 -2.05859375 7.265625 C-2.84363281 7.26046875 -3.62867188 7.2553125 -4.4375 7.25 C-5.61119141 7.25773438 -5.61119141 7.25773438 -6.80859375 7.265625 C-9 7 -9 7 -12 5 C-12 4.34 -12 3.68 -12 3 C-8.7 3.33 -5.4 3.66 -2 4 C-1.34 2.68 -0.68 1.36 0 0 Z " fill="#5F3A0F" transform="translate(666,140)"/>
<path d="M0 0 C0.33 0 0.66 0 1 0 C2.70312419 8.53248355 2.70312419 8.53248355 1.05859375 11.96484375 C-1.09127307 14.58960653 -2.77212963 15.92404321 -6 17 C-6 15.68 -6 14.36 -6 13 C-5.38125 12.443125 -4.7625 11.88625 -4.125 11.3125 C-1.06060519 7.97771741 -0.71094529 4.37792627 0 0 Z " fill="#643B13" transform="translate(679,51)"/>
<path d="M0 0 C3.33980581 -0.43562684 5.34976874 -0.32511563 8.375 1.1875 C10 3 10 3 10.25 5.6875 C10.1675 6.450625 10.085 7.21375 10 8 C9.319375 7.360625 8.63875 6.72125 7.9375 6.0625 C4.53591161 3.6741507 2.09566299 3.32122847 -2 3 C-1.34 2.01 -0.68 1.02 0 0 Z " fill="#5C4125" transform="translate(541,39)"/>
<path d="M0 0 C0.556875 0.66 1.11375 1.32 1.6875 2 C3.81197321 4.21148062 3.81197321 4.21148062 6.5 4.3125 C8.74490919 4.03188635 10.83246036 3.64223397 13 3 C12.34 4.32 11.68 5.64 11 7 C9.56344146 7.08131463 8.1255517 7.13933559 6.6875 7.1875 C5.48673828 7.23970703 5.48673828 7.23970703 4.26171875 7.29296875 C2 7 2 7 0.1875 5.625 C-1 4 -1 4 -0.6875 1.8125 C-0.460625 1.214375 -0.23375 0.61625 0 0 Z " fill="#583A1D" transform="translate(429,140)"/>
<path d="M0 0 C0.556875 0.66 1.11375 1.32 1.6875 2 C3.81197321 4.21148062 3.81197321 4.21148062 6.5 4.3125 C8.74490919 4.03188635 10.83246036 3.64223397 13 3 C12.34 4.32 11.68 5.64 11 7 C9.56344146 7.08131463 8.1255517 7.13933559 6.6875 7.1875 C5.48673828 7.23970703 5.48673828 7.23970703 4.26171875 7.29296875 C2 7 2 7 0.1875 5.625 C-1 4 -1 4 -0.6875 1.8125 C-0.460625 1.214375 -0.23375 0.61625 0 0 Z " fill="#583A1D" transform="translate(173,140)"/>
<path d="M0 0 C0.33 0 0.66 0 1 0 C1.58365019 9.92205323 1.58365019 9.92205323 -2 14 C-4.6875 15.3125 -4.6875 15.3125 -7 16 C-7 15.34 -7 14.68 -7 14 C-8.65 14 -10.3 14 -12 14 C-12 13.67 -12 13.34 -12 13 C-10.741875 12.731875 -9.48375 12.46375 -8.1875 12.1875 C-5.89855286 11.59302079 -4.11237458 11.06524976 -2.0625 9.875 C-0.29712267 6.75962824 -0.29042933 3.54323784 0 0 Z " fill="#5B412C" transform="translate(380,131)"/>
<path d="M0 0 C3 1 3 1 4 3 C4.33 2.01 4.66 1.02 5 0 C5.66 0 6.32 0 7 0 C7 2.64 7 5.28 7 8 C6.34 8 5.68 8 5 8 C4.34 7.01 3.68 6.02 3 5 C2.67 5.99 2.34 6.98 2 8 C1.34 8 0.68 8 0 8 C0 5.36 0 2.72 0 0 Z " fill="#507693" transform="translate(103,151)"/>
<path d="M0 0 C0.99 0.33 1.98 0.66 3 1 C3 1.66 3 2.32 3 3 C4.32 2.67 5.64 2.34 7 2 C6.01 4.97 5.02 7.94 4 11 C1.73030256 8.73030256 1.00868171 7.02604513 0 4 C0 2.68 0 1.36 0 0 Z " fill="#573516" transform="translate(72,59)"/>
<path d="M0 0 C0.66 0 1.32 0 2 0 C2.99 2.64 3.98 5.28 5 8 C2.36 8 -0.28 8 -3 8 C-2.45276317 4.62537285 -1.9451 2.91765 0 0 Z " fill="#537895" transform="translate(136,151)"/>
<path d="M0 0 C2.95183101 2.95183101 3.08663988 5.95511947 4 10 C2.02 10 0.04 10 -2 10 C-1.46274105 6.62294375 -0.88935377 3.303314 0 0 Z " fill="#D1C4B3" transform="translate(587,128)"/>
<path d="M0 0 C2.95183101 2.95183101 3.08663988 5.95511947 4 10 C2.02 10 0.04 10 -2 10 C-1.46274105 6.62294375 -0.88935377 3.303314 0 0 Z " fill="#D1C4B3" transform="translate(409,128)"/>
<path d="M0 0 C0 3.96 0 7.92 0 12 C-0.99 12.495 -0.99 12.495 -2 13 C-2.96070434 10.11788698 -3.10581883 8.30149956 -3.0625 5.3125 C-3.05347656 4.50425781 -3.04445313 3.69601563 -3.03515625 2.86328125 C-3.02355469 2.24839844 -3.01195312 1.63351563 -3 1 C-1 0 -1 0 0 0 Z " fill="#683C13" transform="translate(478,130)"/>
<path d="M0 0 C2.29633824 3.44450737 2.54016485 5.93812283 3 10 C1.35 10 -0.3 10 -2 10 C-1.54177532 6.53058454 -1.10868317 3.32604951 0 0 Z " fill="#D4C8B5" transform="translate(229,128)"/>
<path d="M0 0 C1.85772162 0.08984301 3.71247985 0.24611861 5.5625 0.4375 C7.08037109 0.59025391 7.08037109 0.59025391 8.62890625 0.74609375 C9.80259766 0.87177734 9.80259766 0.87177734 11 1 C10.67 1.99 10.34 2.98 10 4 C2.49230769 4.36923077 2.49230769 4.36923077 0 2.5 C-0.33 2.005 -0.66 1.51 -1 1 C-0.67 0.67 -0.34 0.34 0 0 Z " fill="#54350D" transform="translate(311,65)"/>
<path d="M0 0 C2.01822917 0.06510417 4.03645833 0.13020833 6.0546875 0.1953125 C6.7146875 1.5153125 7.3746875 2.8353125 8.0546875 4.1953125 C6.06901042 3.86979167 4.08333333 3.54427083 2.09765625 3.21875 C-0.26287074 2.99953402 -0.26287074 2.99953402 -2.9453125 5.1953125 C-3.2753125 4.2053125 -3.6053125 3.2153125 -3.9453125 2.1953125 C-1.9453125 0.1953125 -1.9453125 0.1953125 0 0 Z " fill="#583B1C" transform="translate(457.9453125,124.8046875)"/>
<path d="M0 0 C2.60045875 2.3024119 3.84739183 4.49896677 5.1875 7.6875 C5.53167969 8.49574219 5.87585938 9.30398437 6.23046875 10.13671875 C6.48441406 10.75160156 6.73835937 11.36648437 7 12 C6.01 12 5.02 12 4 12 C2.35 8.37 0.7 4.74 -1 1 C-0.67 0.67 -0.34 0.34 0 0 Z " fill="#98A3AD" transform="translate(133,137)"/>
<path d="M0 0 C2.67395069 1.8383411 3.15143643 3.26360023 4 6.375 C4.125 9.6875 4.125 9.6875 4 12.375 C3.67 12.375 3.34 12.375 3 12.375 C3 10.725 3 9.075 3 7.375 C2.34 7.375 1.68 7.375 1 7.375 C-0.03789581 5.73166496 -1.03567924 4.06256133 -2 2.375 C-2.66 1.715 -3.32 1.055 -4 0.375 C-2 -0.625 -2 -0.625 0 0 Z " fill="#563F2E" transform="translate(490,126.625)"/>
<path d="M0 0 C0.33 0 0.66 0 1 0 C1.66 3.96 2.32 7.92 3 12 C2.01 12 1.02 12 0 12 C-1.49498913 9.01002175 -1.11577446 6.29957225 -1 3 C-0.67 2.01 -0.34 1.02 0 0 Z " fill="#563B28" transform="translate(89,57)"/>
<path d="M0 0 C2.18975773 3.28463659 2.99806563 6.20696275 4 10 C3.01 10.33 2.02 10.66 1 11 C-1.03684712 6.92630576 -1.0257259 4.41062136 0 0 Z " fill="#5B402C" transform="translate(70,49)"/>
<path d="M0 0 C1.5 1.0625 1.5 1.0625 3 3 C3.38991688 7.36706908 3.46324069 9.30513897 1 13 C-0.10228696 8.59085217 -0.07654536 4.51617599 0 0 Z " fill="#603913" transform="translate(86,50)"/>
<path d="M0 0 C5.53846154 -0.36923077 5.53846154 -0.36923077 7.875 1.5 C8.24625 1.995 8.6175 2.49 9 3 C6.7915684 3 4.58280589 2.99006681 2.375 2.9375 C-0.01838235 2.83272059 -0.01838235 2.83272059 -2 4 C-1.34 2.68 -0.68 1.36 0 0 Z " fill="#53381B" transform="translate(433,125)"/>
<path d="M0 0 C5.53846154 -0.36923077 5.53846154 -0.36923077 7.875 1.5 C8.24625 1.995 8.6175 2.49 9 3 C6.7915684 3 4.58280589 2.99006681 2.375 2.9375 C-0.01838235 2.83272059 -0.01838235 2.83272059 -2 4 C-1.34 2.68 -0.68 1.36 0 0 Z " fill="#53381B" transform="translate(177,125)"/>
<path d="M0 0 C0.99 0.33 1.98 0.66 3 1 C1 4 1 4 -2 5 C-2.33 7.31 -2.66 9.62 -3 12 C-3.33 12 -3.66 12 -4 12 C-4.49230769 4.61538462 -4.49230769 4.61538462 -2 1.5 C-1.34 1.005 -0.68 0.51 0 0 Z " fill="#66390B" transform="translate(539,53)"/>
<path d="M0 0 C-1 3 -1 3 -3 4 C-5.3329866 4.04022391 -7.66706666 4.04320247 -10 4 C-9 2 -9 2 -6.125 0.875 C-3 0 -3 0 0 0 Z " fill="#553A1D" transform="translate(467,143)"/>
<path d="M0 0 C0.66 0 1.32 0 2 0 C3.32 3.3 4.64 6.6 6 10 C5.01 9.67 4.02 9.34 3 9 C2.29618843 7.01276732 1.6288189 5.01222047 1 3 C0.34 2.67 -0.32 2.34 -1 2 C-0.67 1.34 -0.34 0.68 0 0 Z " fill="#95A0AB" transform="translate(125,121)"/>
<path d="M0 0 C0.66 0.33 1.32 0.66 2 1 C1.67 3.31 1.34 5.62 1 8 C0.01 8 -0.98 8 -2 8 C-1.125 2.25 -1.125 2.25 0 0 Z " fill="#683F16" transform="translate(467,61)"/>
<path d="M0 0 C0.66 0.33 1.32 0.66 2 1 C1.67 3.31 1.34 5.62 1 8 C0.01 8 -0.98 8 -2 8 C-1.125 2.25 -1.125 2.25 0 0 Z " fill="#683F16" transform="translate(203,61)"/>
<path d="M0 0 C-0.83144531 0.39832031 -0.83144531 0.39832031 -1.6796875 0.8046875 C-2.76636719 1.33449219 -2.76636719 1.33449219 -3.875 1.875 C-4.59429687 2.22304687 -5.31359375 2.57109375 -6.0546875 2.9296875 C-8.15135019 3.96557543 -8.15135019 3.96557543 -10 6 C-10 5.34 -10 4.68 -10 4 C-10.99 3.67 -11.98 3.34 -13 3 C-11.21189234 2.30329584 -9.41937948 1.61788811 -7.625 0.9375 C-6.62726563 0.55464844 -5.62953125 0.17179688 -4.6015625 -0.22265625 C-2 -1 -2 -1 0 0 Z " fill="#78B36E" transform="translate(147,130)"/>
<path d="M0 0 C2.25245881 2.68841859 3.88213958 4.64641875 5 8 C3.125 7.75 3.125 7.75 1 7 C-0.3125 5.125 -0.3125 5.125 -1 3 C-0.67 2.01 -0.34 1.02 0 0 Z " fill="#5A3E27" transform="translate(328,139)"/>
<path d="M0 0 C2.25245881 2.68841859 3.88213958 4.64641875 5 8 C3.125 7.75 3.125 7.75 1 7 C-0.3125 5.125 -0.3125 5.125 -1 3 C-0.67 2.01 -0.34 1.02 0 0 Z " fill="#5A3E27" transform="translate(257,139)"/>
<path d="M0 0 C1.98 0 3.96 0 6 0 C6.66 1.32 7.32 2.64 8 4 C3.545 3.01 3.545 3.01 -1 2 C-0.67 1.34 -0.34 0.68 0 0 Z " fill="#533616" transform="translate(660,125)"/>
<path d="M0 0 C0.99 0 1.98 0 3 0 C3 2.31 3 4.62 3 7 C2.01 6.67 1.02 6.34 0 6 C0 4.02 0 2.04 0 0 Z " fill="#693C0F" transform="translate(538,42)"/>
<path d="M0 0 C0.99 0 1.98 0 3 0 C3 0.99 3 1.98 3 3 C2.01 3.495 2.01 3.495 1 4 C0.59270772 6.32156597 0.25561323 8.6568787 0 11 C-0.33 11 -0.66 11 -1 11 C-1.0270043 9.54176788 -1.04639787 8.08339325 -1.0625 6.625 C-1.07410156 5.81289063 -1.08570313 5.00078125 -1.09765625 4.1640625 C-1 2 -1 2 0 0 Z " fill="#7F4812" transform="translate(653,47)"/>
<path d="M0 0 C0.66 0 1.32 0 2 0 C2 2.64 2 5.28 2 8 C1.34 8 0.68 8 0 8 C-0.98120464 4.94736336 -0.98120464 3.05263664 0 0 Z " fill="#467091" transform="translate(108,151)"/>
<path d="M0 0 C0.99 0.33 1.98 0.66 3 1 C2.34 3.97 1.68 6.94 1 10 C0.67 10 0.34 10 0 10 C-1.125 3.375 -1.125 3.375 0 0 Z " fill="#6F5440" transform="translate(226,128)"/>
<path d="M0 0 C1.9375 0.75 1.9375 0.75 4 2 C4.75 4.125 4.75 4.125 5 6 C4.01 6.495 4.01 6.495 3 7 C0 3.375 0 3.375 0 0 Z " fill="#573A1E" transform="translate(606,125)"/>
<path d="M0 0 C1.74627478 2.61941217 2.38722388 4.03824877 3 7 C2.01 7.33 1.02 7.66 0 8 C-1.125 2.25 -1.125 2.25 0 0 Z " fill="#5E4533" transform="translate(481,47)"/>
<path d="M0 0 C1.74627478 2.61941217 2.38722388 4.03824877 3 7 C2.01 7.33 1.02 7.66 0 8 C-1.125 2.25 -1.125 2.25 0 0 Z " fill="#5E4533" transform="translate(217,47)"/>
<path d="M0 0 C1.32 1.32 2.64 2.64 4 4 C3.67 4.99 3.34 5.98 3 7 C1.68 6.01 0.36 5.02 -1 4 C-0.67 2.68 -0.34 1.36 0 0 Z " fill="#583B21" transform="translate(478,140)"/>
<path d="M0 0 C1.74627478 2.61941217 2.38722388 4.03824877 3 7 C1.68 6.67 0.36 6.34 -1 6 C-0.67 4.02 -0.34 2.04 0 0 Z " fill="#563D2A" transform="translate(487,62)"/>
<path d="M0 0 C1.74627478 2.61941217 2.38722388 4.03824877 3 7 C1.68 6.67 0.36 6.34 -1 6 C-0.67 4.02 -0.34 2.04 0 0 Z " fill="#563D2A" transform="translate(223,62)"/>
<path d="M0 0 C0.33 0 0.66 0 1 0 C1.1875 2.875 1.1875 2.875 1 6 C0.01 6.66 -0.98 7.32 -2 8 C-1.125 1.125 -1.125 1.125 0 0 Z " fill="#5F3409" transform="translate(64,50)"/>
</svg>
